{
	"accessors" : 
	[
		{
			"bufferView" : 2,
			"byteOffset" : 0,
			"componentType" : 5126,
			"count" : 2340,
			"max" : 
			[
				0.9075471758842468,
				0.5542271137237549,
				0.6661169528961182,
				1
			],
			"min" : 
			[
				0,
				0.05284162983298302,
				0.0328759141266346,
				1
			],
			"name" : "accessor_color_m0-PolyPaper17_-748424",
			"type" : "VEC4"
		},
		{
			"bufferView" : 2,
			"byteOffset" : 37440,
			"componentType" : 5126,
			"count" : 444,
			"max" : 
			[
				1,
				1,
				1,
				1
			],
			"min" : 
			[
				1,
				1,
				1,
				1
			],
			"name" : "accessor_color_m1-PolyGlass24_-748430",
			"type" : "VEC4"
		},
		{
			"bufferView" : 2,
			"byteOffset" : 44544,
			"componentType" : 5126,
			"count" : 968,
			"max" : 
			[
				0.1939721554517746,
				0.1011451631784439,
				0.1275297701358795,
				1
			],
			"min" : 
			[
				0.05637409910559654,
				0.08919350802898407,
				0.06190747767686844,
				1
			],
			"name" : "accessor_color_m3-PolyPaper22_-748442",
			"type" : "VEC4"
		},
		{
			"bufferView" : 0,
			"byteOffset" : 0,
			"componentType" : 5123,
			"count" : 3696,
			"max" : 
			[
				2339
			],
			"min" : 
			[
				0
			],
			"name" : "accessor_indices_0_m0-PolyPaper17_-748424",
			"type" : "SCALAR"
		},
		{
			"bufferView" : 0,
			"byteOffset" : 7392,
			"componentType" : 5123,
			"count" : 672,
			"max" : 
			[
				443
			],
			"min" : 
			[
				0
			],
			"name" : "accessor_indices_0_m1-PolyGlass24_-748430",
			"type" : "SCALAR"
		},
		{
			"bufferView" : 0,
			"byteOffset" : 8736,
			"componentType" : 5123,
			"count" : 1404,
			"max" : 
			[
				967
			],
			"min" : 
			[
				0
			],
			"name" : "accessor_indices_0_m3-PolyPaper22_-748442",
			"type" : "SCALAR"
		},
		{
			"bufferView" : 1,
			"byteOffset" : 28080,
			"componentType" : 5126,
			"count" : 2340,
			"max" : 
			[
				0.9947836,
				0.999972,
				0.9947534
			],
			"min" : 
			[
				-0.9947838,
				-0.9999733,
				-0.9947534
			],
			"name" : "accessor_normal_m0-PolyPaper17_-748424",
			"type" : "VEC3"
		},
		{
			"bufferView" : 1,
			"byteOffset" : 61488,
			"componentType" : 5126,
			"count" : 444,
			"max" : 
			[
				0.9947836,
				0.9999723,
				0.9947534
			],
			"min" : 
			[
				-0.9947838,
				-0.999972,
				-0.9947534
			],
			"name" : "accessor_normal_m1-PolyGlass24_-748430",
			"type" : "VEC3"
		},
		{
			"bufferView" : 1,
			"byteOffset" : 78432,
			"componentType" : 5126,
			"count" : 968,
			"max" : 
			[
				0.9938501,
				0.9999722,
				0.9935924
			],
			"min" : 
			[
				-0.9939935,
				-0.9999722,
				-0.9941989
			],
			"name" : "accessor_normal_m3-PolyPaper22_-748442",
			"type" : "VEC3"
		},
		{
			"bufferView" : 1,
			"byteOffset" : 0,
			"componentType" : 5126,
			"count" : 2340,
			"max" : 
			[
				0.7779073,
				1.852742,
				-0.4211382
			],
			"min" : 
			[
				0.7260648,
				1.813124,
				-0.4774684
			],
			"name" : "accessor_position_m0-PolyPaper17_-748424",
			"type" : "VEC3"
		},
		{
			"bufferView" : 1,
			"byteOffset" : 56160,
			"componentType" : 5126,
			"count" : 444,
			"max" : 
			[
				0.7529306,
				1.847545,
				-0.4469374
			],
			"min" : 
			[
				0.7495766,
				1.838155,
				-0.4502913
			],
			"name" : "accessor_position_m1-PolyGlass24_-748430",
			"type" : "VEC3"
		},
		{
			"bufferView" : 1,
			"byteOffset" : 66816,
			"componentType" : 5126,
			"count" : 968,
			"max" : 
			[
				0.7852628,
				1.844461,
				-0.4203432
			],
			"min" : 
			[
				0.7244943,
				1.809888,
				-0.4799465
			],
			"name" : "accessor_position_m3-PolyPaper22_-748442",
			"type" : "VEC3"
		}
	],
	"asset" : 
	{
		"copyright" : "Unknown",
		"generator" : "glTF 1-to-2 Upgrader for Google Blocks",
		"version" : "2.0"
	},
	"bufferViews" : 
	[
		{
			"buffer" : 0,
			"byteLength" : 11544,
			"byteOffset" : 0,
			"name" : "ushortBufferView",
			"target" : 34963
		},
		{
			"buffer" : 0,
			"byteLength" : 90048,
			"byteOffset" : 11544,
			"byteStride" : 12,
			"name" : "vec3BufferView",
			"target" : 34962
		},
		{
			"buffer" : 0,
			"byteLength" : 60032,
			"byteOffset" : 101592,
			"byteStride" : 16,
			"name" : "vec4BufferView",
			"target" : 34962
		}
	],
	"buffers" : 
	[
		{
			"byteLength" : 161624,
			"name" : "model",
			"uri" : "model.bin"
		}
	],
	"materials" : 
	[
		{
			"alphaMode" : "OPAQUE",
			"doubleSided" : false,
			"name" : "BlocksPaper",
			"pbrMetallicRoughness" : 
			{
				"baseColorFactor" : 
				[
					1,
					1,
					1,
					1
				],
				"metallicFactor" : 0,
				"roughnessFactor" : 0.6
			}
		},
		{
			"alphaMode" : "BLEND",
			"doubleSided" : false,
			"name" : "BlocksGlass",
			"pbrMetallicRoughness" : 
			{
				"baseColorFactor" : 
				[
					0.2,
					0.2,
					1,
					0.3
				],
				"metallicFactor" : 1,
				"roughnessFactor" : 0.4
			}
		},
		{
			"alphaMode" : "OPAQUE",
			"doubleSided" : true,
			"name" : "BlocksGem",
			"pbrMetallicRoughness" : 
			{
				"baseColorFactor" : 
				[
					1,
					0.4,
					1,
					1
				],
				"metallicFactor" : 0,
				"roughnessFactor" : 0.1
			}
		}
	],
	"meshes" : 
	[
		{
			"name" : "mesh_m0-PolyPaper17_-748424",
			"primitives" : 
			[
				{
					"attributes" : 
					{
						"COLOR_0" : 0,
						"NORMAL" : 6,
						"POSITION" : 9
					},
					"indices" : 3,
					"material" : 0,
					"mode" : 4
				}
			]
		},
		{
			"name" : "mesh_m1-PolyGlass24_-748430",
			"primitives" : 
			[
				{
					"attributes" : 
					{
						"COLOR_0" : 1,
						"NORMAL" : 7,
						"POSITION" : 10
					},
					"indices" : 4,
					"material" : 1,
					"mode" : 4
				}
			]
		},
		{
			"name" : "mesh_m3-PolyPaper22_-748442",
			"primitives" : 
			[
				{
					"attributes" : 
					{
						"COLOR_0" : 2,
						"NORMAL" : 8,
						"POSITION" : 11
					},
					"indices" : 5,
					"material" : 0,
					"mode" : 4
				}
			]
		}
	],
	"nodes" : 
	[
		{
			"matrix" : 
			[
				1,
				0,
				0,
				0,
				0,
				1,
				0,
				0,
				0,
				0,
				1,
				0,
				0,
				0,
				0,
				1
			],
			"mesh" : 2,
			"name" : "node_MeshObject-1002277888-PolyPaper22"
		},
		{
			"matrix" : 
			[
				1,
				0,
				0,
				0,
				0,
				1,
				0,
				0,
				0,
				0,
				1,
				0,
				0,
				0,
				0,
				1
			],
			"mesh" : 0,
			"name" : "node_MeshObject-139785216-PolyPaper17"
		},
		{
			"matrix" : 
			[
				1,
				0,
				0,
				0,
				0,
				1,
				0,
				0,
				0,
				0,
				1,
				0,
				0,
				0,
				0,
				1
			],
			"mesh" : 1,
			"name" : "node_MeshObject432293888-PolyGlass24"
		}
	],
	"scene" : 0,
	"scenes" : 
	[
		{
			"extras" : {},
			"name" : "defaultScene",
			"nodes" : 
			[
				1,
				2,
				0
			]
		}
	]
}